<svg xmlns="http://www.w3.org/2000/svg" width="46.132" height="38.839" viewBox="0 0 46.132 38.839">
  <g id="Group_18424" data-name="Group 18424" transform="translate(-1474.868 -560.937)">
    <path id="Path_10245" data-name="Path 10245" d="M345.83,21.947H333.882a.384.384,0,0,0-.071-.032,1.886,1.886,0,0,1-1.551-1.937q0-4.361,0-8.722a2.028,2.028,0,0,1,.019-.354,1.9,1.9,0,0,1,1.964-1.614h.549c0-.9-.014-1.76.007-2.623a5.331,5.331,0,0,1,.14-1.112,5.062,5.062,0,0,1,9.979,1.073c.005.752,0,1.5,0,2.255v.407c.23,0,.439,0,.648,0a1.887,1.887,0,0,1,1.883,1.889q0,4.44,0,8.88a1.858,1.858,0,0,1-.639,1.414,2.227,2.227,0,0,1-.981.476M343.224,9.282c0-.855,0-1.691,0-2.526a4.022,4.022,0,0,0-.038-.511,3.367,3.367,0,0,0-6.7.534c0,.771,0,1.542,0,2.313v.19Zm-4.2,7.587c0,.27,0,.54,0,.811a.837.837,0,1,0,1.672.007c0-.56.005-1.12,0-1.681a.326.326,0,0,1,.156-.306,1.676,1.676,0,0,0-1.31-3,1.61,1.61,0,0,0-1.322,1.308,1.587,1.587,0,0,0,.65,1.687.343.343,0,0,1,.16.325c-.01.283,0,.567,0,.85" transform="translate(1142.607 559.248)" fill="#fff"/>
    <path id="Path_10246" data-name="Path 10246" d="M401.1,4.924a19.108,19.108,0,0,0-12.448,4.607l1.184,2.4a14.848,14.848,0,0,1,5.969-3.492,25.035,25.035,0,0,0-3.189,9.23h-1.664l-.038,2.617h1.313V27.92c-2.313,0-4.593.008-6.873-.016a.639.639,0,0,1-.48-.368c-.084-.381-.153-.761-.211-1.142l-2.585.018A19.159,19.159,0,1,0,401.1,4.924M416.31,17.66h-6.736a25.17,25.17,0,0,0-3.163-9.181c4.121.962,8.691,5.407,9.9,9.181M398.264,9.394c1.815-2.552,3.842-2.552,5.661,0a19.975,19.975,0,0,1,3.024,8.265H395.241a20,20,0,0,1,3.023-8.266m-3.417,10.912h12.511v7.572H394.847Zm-8.994,10.185H392.6a25.194,25.194,0,0,0,3.158,9.168c-3.153-.208-8.731-5.352-9.91-9.168m12.4,8.272a19.941,19.941,0,0,1-3.014-8.256h11.709a20.025,20.025,0,0,1-3.036,8.283c-1.815,2.542-3.842,2.533-5.659-.027m8.288,1.013c.65-1.551,1.363-3.017,1.877-4.548s.825-3.116,1.239-4.734h6.759a16.831,16.831,0,0,1-9.875,9.283m10.273-11.881c-2.278.04-4.557.026-6.856.026V20.25h2.951c1.248,0,2.5.024,3.743-.012.48-.014.644.175.729.606a15.748,15.748,0,0,1-.024,6.474c-.05.229-.352.572-.542.576" transform="translate(1100.744 556.529)" fill="#fff"/>
  </g>
</svg>
