<svg xmlns="http://www.w3.org/2000/svg" xmlns:xlink="http://www.w3.org/1999/xlink" width="1080" height="1080" viewBox="0 0 1080 1080">
  <defs>
    <linearGradient id="linear-gradient" x1="0.5" x2="0.5" y2="1" gradientUnits="objectBoundingBox">
      <stop offset="0" stop-color="#502b3f"/>
      <stop offset="1" stop-color="#662c4b"/>
    </linearGradient>
  </defs>
  <g id="logo-hub_" data-name="logo-hub " transform="translate(-8822 8700)">
    <g id="Rectangle_15809" data-name="Rectangle 15809" transform="translate(8822 -8700)" stroke="#707070" stroke-width="1" fill="url(#linear-gradient)">
      <rect width="1080" height="1080" stroke="none"/>
      <rect x="0.5" y="0.5" width="1079" height="1079" fill="none"/>
    </g>
    <g id="Group_31468" data-name="Group 31468" transform="translate(8902.255 -8404.377)">
      <g id="logo_cell" data-name="logo cell" transform="translate(0 0)">
        <path id="Path_18406" data-name="Path 18406" d="M283.515,33.524a87.687,87.687,0,0,1,40.405,9.788l163.651,85.633c25,13.044,40.313,37.153,40.313,63.3V363.48c.031,26.149-15.315,50.289-40.313,63.394L323.92,512.47a87.938,87.938,0,0,1-80.718,0l-163.651-85.6C54.536,413.8,39.143,389.629,39.129,363.48V192.247c0-26.135,15.346-50.227,40.33-63.3L243.11,43.312A87.728,87.728,0,0,1,283.515,33.524Z" transform="translate(-39.129 -33.524)" fill="#fff" fill-rule="evenodd"/>
      </g>
      <g id="Group_1" data-name="Group 1" transform="translate(19.102 114.186)">
        <path id="Path_1" data-name="Path 1" d="M126.768,289.229h2.257q27.133,0,54.292-.075a4.035,4.035,0,0,1,3.908,2.257,87.688,87.688,0,0,0,34.756,32.317,5.4,5.4,0,0,1,.793.509c.107.08.155.236.3.482H96.8a39.28,39.28,0,0,0,4.445-2.841,26.652,26.652,0,0,0,10.154-20.9c.134-18.089,0-36.188.107-54.282a5.5,5.5,0,0,1,1.346-3.453c13.515-14.668,27.272-29.116,40.632-43.929a87.053,87.053,0,0,0,19.552-33.5,41.477,41.477,0,0,0-6.09-38.279,27.756,27.756,0,0,0-19.927-10.851,37.958,37.958,0,0,0-24.318,4.536,34.979,34.979,0,0,0-15.955,23.487,111.254,111.254,0,0,0-1.876,13.5c-.145,1.389-.547,1.887-1.973,1.882q-20.3-.056-40.589,0c-1.619,0-2.016-.633-2.016-2.091.7-29.433,13.537-56.319,43.8-69.819A97.737,97.737,0,0,1,137.6,80.4a107.058,107.058,0,0,1,26.977,1.464,75.135,75.135,0,0,1,42.1,21.922,61.951,61.951,0,0,1,16.469,36.225,82.233,82.233,0,0,1-3.136,33.046A5.64,5.64,0,0,1,217.65,176a82.042,82.042,0,0,0-36.686,42.466c-2.107,5.517-2.97,11.5-4.53,17.241a9.978,9.978,0,0,1-2.075,4.273q-23.112,23.506-46.374,46.867c-.531.536-1.024,1.11-1.539,1.667l.316.735" transform="translate(-46.215 -80.121)" fill="#d10068"/>
        <path id="Path_2" data-name="Path 2" d="M200.849,108.88V98.855h37.126V248.019H200.892V237.6c-1.1.429-1.791.67-2.434.954a101.284,101.284,0,0,1-34.151,9.864,71.359,71.359,0,0,1-64.773-27.958,71.238,71.238,0,0,1-15.81-39.2,73.949,73.949,0,0,1,9.988-46.835,75.706,75.706,0,0,1,34.435-30.741,70.025,70.025,0,0,1,31.373-6.262,85.019,85.019,0,0,1,30.419,6.718c3.442,1.437,6.857,2.965,10.872,4.7M127.24,172.635c.44,3.013.788,6.042,1.34,9.05a32.9,32.9,0,0,0,49.408,21.327,36.316,36.316,0,0,0,10.224-49.559,33.37,33.37,0,0,0-60.983,19.182" transform="translate(53.679 -4.83)" fill="#d10068"/>
        <path id="Path_3" data-name="Path 3" d="M151.948,86.011v2.547l.123,131.938c0,10.224-.118,20.458.241,30.671a18.8,18.8,0,0,0,11.607,16.716,18.283,18.283,0,0,0,17.6,0c1.807,4.621,3.581,9.125,5.323,13.639,1.163,3,2.187,6.042,3.474,9.007a2.218,2.218,0,0,1-.761,3.04c-.059.032-.118.064-.177.091a43.051,43.051,0,0,1-22.833,7.784,49.729,49.729,0,0,1-32.907-7.388,41.516,41.516,0,0,1-17.456-25.932,65.76,65.76,0,0,1-1.689-14.438q-.273-82.13-.284-164.271c0-3.49,0-3.512,3.356-3.512h31.861c.67,0,1.4.059,2.5.113" transform="translate(188.916 -54.899)" fill="#d10068"/>
        <path id="Path_4" data-name="Path 4" d="M196.226,267.8c2.975,7.725,5.865,15.344,8.846,22.924.584,1.474-.123,2.113-1.142,2.858a40.643,40.643,0,0,1-20.989,7.586,54.234,54.234,0,0,1-28.838-3.9,41.754,41.754,0,0,1-22.05-24.849,52.617,52.617,0,0,1-2.8-18.04q.1-39.412-.065-78.836-.1-43.546-.257-87.1v-2.5h37.608v2.627c.15,53.5.509,107,.322,160.492a21.23,21.23,0,0,0,21.622,20.834l.536-.016a21.824,21.824,0,0,0,3.71-.676,32.8,32.8,0,0,0,3.538-1.464" transform="translate(253.125 -54.764)" fill="#d10068"/>
        <path id="Path_7" data-name="Path 7" d="M85.116,120.548h-27V104.915h55.922c0,4.975.064,9.907-.08,14.829,0,.67-1.008,1.49-1.732,1.914-7.951,4.611-15.939,9.162-23.916,13.751-.509.295-.992.67-2.064,1.389h27.61v15.794h-55.9c0-5.077-.07-10.009.086-14.942,0-.67,1.083-1.442,1.828-1.871,7.742-4.482,15.542-8.926,23.321-13.36.718-.413,1.421-.852,2.134-1.281-.064-.193-.139-.386-.215-.6" transform="translate(-56.437 28.011)" fill="#464749"/>
        <path id="Path_8" data-name="Path 8" d="M86.9,114.427a30.017,30.017,0,1,1-29.218,30.794c-.011-.252-.011-.5-.011-.756a29.374,29.374,0,0,1,28.7-30.033c.177,0,.354-.005.531-.005m14.775,29.829a14.184,14.184,0,0,0-14.191-14.175c-.349,0-.692.016-1.035.038a14.777,14.777,0,0,0-15.027,14.518v.1A14.518,14.518,0,0,0,86.4,158.8l.263-.011a14.559,14.559,0,0,0,15-14.111c.005-.15.005-.3.005-.45" transform="translate(-57.665 69.446)" fill="#464749"/>
        <path id="Path_9" data-name="Path 9" d="M57.968,96.668H70.926v24.34H79.52c.048-.761.145-1.592.145-2.418,0-5.9.086-11.805-.048-17.7-.043-1.941.638-2.423,2.434-2.359,3.056.123,6.122.038,9.457.038v22.442h9.125V96.657H113.74v39.726H57.968Z" transform="translate(-56.341 -8.004)" fill="#464749"/>
      </g>
    </g>
    <text id="hub" transform="translate(9390.492 -8072.167)" fill="#fff" font-size="214" font-family="SegoeUI-Bold, Segoe UI" font-weight="700"><tspan x="0" y="0">HUB</tspan></text>
  </g>
</svg>
