<svg xmlns="http://www.w3.org/2000/svg" width="31.714" height="25.29" viewBox="0 0 31.714 25.29">
  <g id="Group_31580" data-name="Group 31580" transform="translate(-17916.984 -6217.046)">
    <g id="Group_31225" data-name="Group 31225" transform="translate(-1131.276 -164.316)">
      <path id="Path_17083" data-name="Path 17083" d="M-6082.877,230.123a11.4,11.4,0,0,1-1.017-.658,5.956,5.956,0,0,0-2.154-.852,7.4,7.4,0,0,1-2.253-.994,2.386,2.386,0,0,1-.652-.708.586.586,0,0,1,.358-.913,3.026,3.026,0,0,1,.848-.168,16.668,16.668,0,0,1,3.99.455,14.771,14.771,0,0,0,1.485.139,15.841,15.841,0,0,1,6.411,1.927,6.317,6.317,0,0,1,2.086,1.916c1.051,1.478,2.134,2.934,3.2,4.4.027.036.049.075.083.127-.39.408-.776.815-1.165,1.22-.771.807-1.55,1.608-2.313,2.422a.432.432,0,0,1-.517.134c-2.508-.784-5.014-1.576-7.533-2.323a10.591,10.591,0,0,0-1.85-.279c-1.7-.187-3.392-.369-5.089-.528-1.048-.1-2.1-.168-3.15-.221a6.731,6.731,0,0,1-3.206-.9c-1.6-.952-3.242-1.82-4.854-2.745a13.545,13.545,0,0,1-1.271-.885,2.571,2.571,0,0,1-.406-.4c-.371-.431-.454-.826-.255-1.163a1.217,1.217,0,0,1,1.3-.594,4.157,4.157,0,0,1,.869.3c1.921.9,3.837,1.812,5.756,2.716a.445.445,0,0,0,.233.038q3.267-.412,6.532-.83,2.253-.286,4.508-.566Z" transform="translate(25150.465 6168.048)" fill="#fff"/>
      <path id="Path_17084" data-name="Path 17084" d="M-6053.135,251.215c-.437.045-.873.092-1.309.136-.659.067-1.317.14-1.977.192a1.029,1.029,0,0,1-.493-.076c-1.6-.738-3.191-1.479-4.776-2.242a3.194,3.194,0,0,1-.808-.583.736.736,0,0,1-.145-.946c.178-.326.366-.407.83-.331a6.389,6.389,0,0,1,2.119.822c1.047.6,2.072,1.235,3.125,1.823a6.173,6.173,0,0,0,1.117.413c.707.229,1.417.444,2.126.665.065.021.129.05.192.076Z" transform="translate(25113.162 6147.701)" fill="#fff"/>
      <path id="Path_17085" data-name="Path 17085" d="M-5966.448,261.723c-.96.054-1.919.11-2.879.159a.851.851,0,0,1-.318-.049c-1.179-.416-2.364-.815-3.527-1.269a7.11,7.11,0,0,1-1.187-.7.858.858,0,0,1-.248-.285.414.414,0,0,1,.316-.679,2.434,2.434,0,0,1,.908.1,11.507,11.507,0,0,1,1.79.708,21,21,0,0,0,2.992,1.21l1.952.676c.073.025.144.06.215.09Z" transform="translate(25029.902 6136.776)" fill="#fff"/>
    </g>
    <path id="star-sharp-svgrepo-com" d="M8.971,3.858c.168-.483.252-.725.376-.792a.363.363,0,0,1,.344,0c.124.067.208.308.376.792l1.11,3.194a.826.826,0,0,0,.115.257.362.362,0,0,0,.141.1.825.825,0,0,0,.28.03l3.381.069c.511.01.767.016.869.113a.363.363,0,0,1,.106.327c-.025.139-.229.293-.637.6L12.739,10.6a.828.828,0,0,0-.209.189.363.363,0,0,0-.054.166.827.827,0,0,0,.058.276l.979,3.236c.148.49.222.734.161.861a.363.363,0,0,1-.279.2c-.14.019-.35-.127-.77-.419L9.851,13.176a.828.828,0,0,0-.244-.141.363.363,0,0,0-.175,0,.828.828,0,0,0-.244.141L6.413,15.107c-.42.292-.63.438-.77.419a.363.363,0,0,1-.279-.2c-.061-.127.013-.372.161-.861L6.5,11.226a.826.826,0,0,0,.058-.276.363.363,0,0,0-.054-.166A.828.828,0,0,0,6.3,10.6L3.605,8.553c-.408-.309-.611-.464-.637-.6a.363.363,0,0,1,.106-.327c.1-.1.358-.1.869-.113l3.381-.069a.826.826,0,0,0,.28-.03.363.363,0,0,0,.141-.1.826.826,0,0,0,.115-.257Z" transform="translate(17916.766 6214.023)" fill="#ffff"/>
    <path id="star-sharp-svgrepo-com-2" data-name="star-sharp-svgrepo-com" d="M6.439,3.506c.1-.279.146-.419.218-.458a.21.21,0,0,1,.2,0c.072.039.12.178.218.458l.642,1.848a.478.478,0,0,0,.066.149.21.21,0,0,0,.082.059.478.478,0,0,0,.162.017l1.956.04c.3.006.444.009.5.065a.21.21,0,0,1,.062.189c-.015.08-.132.17-.368.348L8.618,7.4a.479.479,0,0,0-.121.109.21.21,0,0,0-.031.1.478.478,0,0,0,.034.16l.566,1.872c.086.283.129.425.093.5A.21.21,0,0,1,9,10.256c-.081.011-.2-.074-.445-.243L6.948,8.9a.479.479,0,0,0-.141-.082.21.21,0,0,0-.1,0,.479.479,0,0,0-.141.082L4.959,10.014c-.243.169-.364.253-.445.243a.21.21,0,0,1-.161-.117c-.035-.074.007-.215.093-.5l.566-1.872a.478.478,0,0,0,.034-.16.21.21,0,0,0-.031-.1A.479.479,0,0,0,4.893,7.4L3.335,6.222c-.236-.179-.354-.268-.368-.348a.21.21,0,0,1,.062-.189c.059-.056.207-.059.5-.065l1.956-.04a.478.478,0,0,0,.162-.017A.21.21,0,0,0,5.73,5.5.478.478,0,0,0,5.8,5.354Z" transform="translate(17931.227 6218.294)" fill="#ffff"/>
  </g>
</svg>
