<svg xmlns="http://www.w3.org/2000/svg" width="34" height="29.75" viewBox="0 0 34 29.75">
  <g id="devices-svgrepo-com_1_" data-name="devices-svgrepo-com (1)" transform="translate(-2 -4)" opacity="0.69">
    <path id="Path_16703" data-name="Path 16703" d="M32.625,13h-8.5A2.125,2.125,0,0,0,22,15.125V31.063a2.125,2.125,0,0,0,2.125,2.125h8.5a2.125,2.125,0,0,0,2.125-2.125V15.125A2.125,2.125,0,0,0,32.625,13Zm0,2.125V26.813h-8.5V15.125Zm-8.5,15.938v-2.55h8.5v2.55Z" transform="translate(1.25 0.563)" fill="#f5f5f5"/>
    <path id="Path_16704" data-name="Path 16704" d="M21.125,23.125h-17v-17h25.5v5.313H31.75V6.125A2.125,2.125,0,0,0,29.625,4H4.125A2.125,2.125,0,0,0,2,6.125v17A2.125,2.125,0,0,0,4.125,25.25h17Z" fill="#f5f5f5"/>
    <path id="Path_16705" data-name="Path 16705" d="M20.75,26H9.063a1.063,1.063,0,0,0,0,2.125H20.75Z" transform="translate(0.375 1.375)" fill="#f5f5f5"/>
  </g>
</svg>
