<svg xmlns="http://www.w3.org/2000/svg" width="30.915" height="30.915" viewBox="0 0 30.915 30.915">
  <g id="down-arrow-circle-svgrepo-com" transform="translate(-16.543 -16.299)" opacity="0.69">
    <g id="Group_28829" data-name="Group 28829">
      <path id="Path_16706" data-name="Path 16706" d="M39.894,48.494a.933.933,0,0,0,.62.233c.035,0,.07-.007.105-.01.013,0,.026,0,.039,0a.933.933,0,0,0,.685-.3l6.828-6.778a.881.881,0,0,0-.064-1.269.941.941,0,0,0-1.3.062l-6.276,6.185-6.108-6.248a.94.94,0,0,0-1.3.062.881.881,0,0,0,.064,1.269Z" transform="translate(-8.641 -12.162)" fill="#f5f5f5"/>
      <path id="Path_16707" data-name="Path 16707" d="M32,47.214A15.458,15.458,0,1,0,16.543,31.757,15.475,15.475,0,0,0,32,47.214Zm0-29.067a13.61,13.61,0,1,1-13.609,13.61A13.625,13.625,0,0,1,32,18.147Z" fill="#f5f5f5"/>
    </g>
  </g>
</svg>
