<svg xmlns="http://www.w3.org/2000/svg" width="47.501" height="32.97" viewBox="0 0 47.501 32.97">
  <g id="mastercard-svgrepo-com" transform="translate(0.789 0.5)">
    <rect id="Rectangle_14034" data-name="Rectangle 14034" width="46.501" height="31.97" rx="3.5" transform="translate(-0.289)" fill="#fff" stroke="#f3f3f3" stroke-width="1"/>
    <path id="Path_16563" data-name="Path 16563" d="M32.39,25.551H23.959V10.512H32.39Z" transform="translate(-4.302 -2.357)" fill="#ff5f00"/>
    <path id="Path_16564" data-name="Path 16564" d="M21.91,17.564a9.523,9.523,0,0,1,3.68-7.52,9.565,9.565,0,1,0,0,15.039,9.523,9.523,0,0,1-3.68-7.519" transform="translate(-1.712 -1.891)" fill="#eb001b"/>
    <path id="Path_16565" data-name="Path 16565" d="M44.72,17.564a9.65,9.65,0,0,1-15.59,7.519,9.521,9.521,0,0,0,0-15.039,9.65,9.65,0,0,1,15.59,7.52" transform="translate(-5.261 -1.891)" fill="#f79e1b"/>
  </g>
</svg>
