<svg xmlns="http://www.w3.org/2000/svg" width="43.538" height="25" viewBox="0 0 43.538 25"><defs><style>.a{fill:#fff;}</style></defs><path class="a" d="M28.521,25H4.4A4.406,4.406,0,0,1,0,20.6V4.4A4.406,4.406,0,0,1,4.4,0h24.12a4.406,4.406,0,0,1,4.4,4.4V7.814l5.6-5.6a2.939,2.939,0,0,1,5.018,2.078V20.707a2.939,2.939,0,0,1-5.018,2.078l-5.6-5.6V20.6A4.406,4.406,0,0,1,28.521,25ZM12.349,2.5a2.011,2.011,0,0,0-2.009,2v16a2.011,2.011,0,0,0,2.009,2,1.975,1.975,0,0,0,1.192-.4l10.667-8a2,2,0,0,0,0-3.2l-10.667-8A1.974,1.974,0,0,0,12.349,2.5Z"/></svg>