<svg xmlns="http://www.w3.org/2000/svg" width="38.323" height="38.323" viewBox="0 0 38.323 38.323">
  <path id="Path_10240" data-name="Path 10240" d="M39.1,0A19.161,19.161,0,1,1,19.929,19.1,19.185,19.185,0,0,1,39.1,0m6.257,15.382H32.842v7.572H45.353ZM33.236,12.735H44.944A19.976,19.976,0,0,0,41.92,4.471c-1.819-2.553-3.846-2.553-5.661,0a19.994,19.994,0,0,0-3.023,8.266m11.71,12.847H33.237a19.939,19.939,0,0,0,3.014,8.256c1.818,2.56,3.844,2.569,5.659.027a20.024,20.024,0,0,0,3.036-8.283M30.225,23V15.359H22.966a15.1,15.1,0,0,0-.094,7.252.638.638,0,0,0,.48.368c2.28.024,4.56.016,6.873.016m17.731,0c2.3,0,4.578.014,6.856-.026.19,0,.491-.347.542-.576a15.755,15.755,0,0,0,.024-6.474c-.085-.431-.249-.62-.729-.606-1.247.037-2.495.012-3.743.012H47.956ZM23.848,25.567c1.179,3.816,6.757,8.96,9.91,9.168A25.2,25.2,0,0,1,30.6,25.567Zm23.807,0c-.414,1.618-.727,3.21-1.239,4.734s-1.227,3-1.877,4.548a16.832,16.832,0,0,0,9.875-9.283Zm6.651-12.833c-1.208-3.774-5.778-8.219-9.9-9.181a25.168,25.168,0,0,1,3.163,9.181ZM33.8,3.513c-4.461,1.189-8.9,5.745-9.9,9.23h6.713A25.036,25.036,0,0,1,33.8,3.513" transform="translate(-19.929)" fill="#fff"/>
</svg>
