<svg xmlns="http://www.w3.org/2000/svg" width="23.727" height="26.699" viewBox="0 0 23.727 26.699">
  <g id="shield-check-svgrepo-com" transform="translate(-1 -0.088)">
    <path id="Path_16570" data-name="Path 16570" d="M16.325,5.622a1.271,1.271,0,0,1,0,1.8L9.546,14.2a1.271,1.271,0,0,1-1.8,0l-3.39-3.39a1.271,1.271,0,0,1,1.8-1.8L8.648,11.5l5.881-5.881a1.271,1.271,0,0,1,1.8,0Z" transform="translate(2.097 3.587)" fill="#cecece"/>
    <path id="Path_16571" data-name="Path 16571" d="M11.609.3a3.813,3.813,0,0,1,2.508,0l8.05,2.8a3.813,3.813,0,0,1,2.559,3.6v6.8c0,3.471-2,6.35-4.152,8.459a28.634,28.634,0,0,1-6.056,4.4,3.43,3.43,0,0,1-3.312,0,28.467,28.467,0,0,1-6.054-4.4C3,19.85,1,16.972,1,13.5V6.7A3.815,3.815,0,0,1,3.559,3.1Zm1.671,2.4a1.271,1.271,0,0,0-.836,0L4.395,5.5a1.271,1.271,0,0,0-.852,1.2v6.8c0,2.466,1.436,4.729,3.39,6.644a25.967,25.967,0,0,0,5.5,3.988.88.88,0,0,0,.868,0,25.967,25.967,0,0,0,5.5-3.988c1.954-1.915,3.39-4.178,3.39-6.644V6.7a1.271,1.271,0,0,0-.854-1.2l-8.05-2.8Z" fill="#cecece" fill-rule="evenodd"/>
  </g>
</svg>
