<svg xmlns="http://www.w3.org/2000/svg" width="40.857" height="37.453" viewBox="0 0 40.857 37.453"><defs><style>.a{fill:#fff;}</style></defs><g transform="translate(-6381 -4289.286)"><path class="a" d="M35.75,37.453H5.108A5.113,5.113,0,0,1,0,32.346V5.108A5.113,5.113,0,0,1,5.108,0H35.75a5.113,5.113,0,0,1,5.107,5.107V32.346A5.113,5.113,0,0,1,35.75,37.453ZM3,5.714v26h.4v.632a1.7,1.7,0,0,0,1.7,1.7H35.75a1.7,1.7,0,0,0,1.7-1.7v-.632H38v-26Z" transform="translate(6381 4289.286)"/><g transform="translate(6403.982 4299.202)"><path class="a" d="M21.161,13.107V9.277A1.277,1.277,0,0,0,19.884,8H14.777A1.277,1.277,0,0,0,13.5,9.277v3.83Z" transform="translate(-13.5 -8)"/></g><g transform="translate(6391.214 4299.202)"><path class="a" d="M13.661,13.107V9.277A1.277,1.277,0,0,0,12.384,8H7.277A1.277,1.277,0,0,0,6,9.277v3.83Z" transform="translate(-6 -8)"/></g><g transform="translate(6391.214 4306.863)"><path class="a" d="M18.768,12.5v2.554a2.554,2.554,0,0,1-5.107,0V12.5H6v2.554a10.214,10.214,0,0,0,20.429,0V12.5Z" transform="translate(-6 -12.5)"/></g></g></svg>