<svg xmlns="http://www.w3.org/2000/svg" width="18.528" height="18.528" viewBox="0 0 18.528 18.528">
  <g id="zoom-room" transform="translate(-1 -1)">
    <path id="Path_16796" data-name="Path 16796" d="M10.353,6.382a.882.882,0,0,0-1.765,0V8.588H6.382a.882.882,0,0,0,0,1.765H8.588v2.206a.882.882,0,1,0,1.765,0V10.353h2.206a.882.882,0,1,0,0-1.765H10.353Z" transform="translate(-0.53 -0.53)" fill="#d4d4d4"/>
    <path id="Path_16797" data-name="Path 16797" d="M8.941,1A7.941,7.941,0,1,0,13.9,15.145l4.125,4.125a.882.882,0,1,0,1.248-1.248L15.145,13.9A7.941,7.941,0,0,0,8.941,1ZM2.765,8.941a6.176,6.176,0,1,1,6.176,6.176A6.176,6.176,0,0,1,2.765,8.941Z" fill="#d4d4d4" fill-rule="evenodd"/>
  </g>
</svg>
