<svg xmlns="http://www.w3.org/2000/svg" width="122.079" height="70.388" viewBox="0 0 122.079 70.388">
  <g id="_12all-hub-logo" data-name="12all-hub-logo" transform="translate(-276.92 -590.312)">
    <g id="Group_31425" data-name="Group 31425" transform="translate(236.443 584.313)">
      <g id="logo_cell" data-name="logo cell" transform="translate(40.477 5.999)">
        <path id="Path_18406" data-name="Path 18406" d="M74.324,33.524a12.628,12.628,0,0,1,5.819,1.41l23.568,12.332a10.368,10.368,0,0,1,5.806,9.116v24.66a10.39,10.39,0,0,1-5.806,9.13L80.143,102.5a12.664,12.664,0,0,1-11.625,0L44.95,90.172a10.408,10.408,0,0,1-5.821-9.13V56.382a10.382,10.382,0,0,1,5.808-9.116L68.505,34.934A12.634,12.634,0,0,1,74.324,33.524Z" transform="translate(-39.129 -33.524)" fill="#fff" fill-rule="evenodd"/>
      </g>
      <g id="Group_1" data-name="Group 1" transform="translate(43.228 22.443)">
        <path id="Path_1" data-name="Path 1" d="M69.864,110.235h.325q3.908,0,7.819-.011a.581.581,0,0,1,.563.325,12.628,12.628,0,0,0,5.005,4.654.778.778,0,0,1,.114.073c.015.012.022.034.043.069H65.548a5.658,5.658,0,0,0,.64-.409,3.838,3.838,0,0,0,1.462-3.01c.019-2.6,0-5.212.015-7.817a.792.792,0,0,1,.194-.5c1.946-2.112,3.928-4.193,5.852-6.326a12.537,12.537,0,0,0,2.816-4.824,5.973,5.973,0,0,0-.877-5.513,4,4,0,0,0-2.87-1.563,5.467,5.467,0,0,0-3.5.653,5.037,5.037,0,0,0-2.3,3.382,16.023,16.023,0,0,0-.27,1.945c-.021.2-.079.272-.284.271q-2.923-.008-5.845,0c-.233,0-.29-.091-.29-.3.1-4.239,1.95-8.111,6.308-10.055a14.076,14.076,0,0,1,4.826-1.122,15.418,15.418,0,0,1,3.885.211,10.821,10.821,0,0,1,6.063,3.157,8.922,8.922,0,0,1,2.372,5.217,11.843,11.843,0,0,1-.452,4.759.812.812,0,0,1-.34.424,11.815,11.815,0,0,0-5.283,6.116c-.3.794-.428,1.656-.652,2.483a1.437,1.437,0,0,1-.3.615q-3.328,3.385-6.679,6.75c-.076.077-.147.16-.222.24l.046.106" transform="translate(-58.263 -80.121)" fill="#d10068"/>
        <path id="Path_2" data-name="Path 2" d="M100.139,99.04V97.6h5.347v21.482h-5.34v-1.5c-.158.062-.258.1-.351.137a14.587,14.587,0,0,1-4.918,1.421,10.741,10.741,0,0,1-11.605-9.671,10.65,10.65,0,0,1,1.438-6.745,10.9,10.9,0,0,1,4.959-4.427,10.085,10.085,0,0,1,4.518-.9,12.244,12.244,0,0,1,4.381.967c.5.207.987.427,1.566.677m-10.6,9.187c.063.434.114.87.193,1.3a4.738,4.738,0,0,0,7.116,3.071,5.23,5.23,0,0,0,1.472-7.137,4.806,4.806,0,0,0-8.782,2.763" transform="translate(-63.484 -84.056)" fill="#d10068"/>
        <path id="Path_3" data-name="Path 3" d="M119.64,85.919v.367l.018,19c0,1.472-.017,2.946.035,4.417a2.708,2.708,0,0,0,1.672,2.407,2.633,2.633,0,0,0,2.534,0c.26.666.516,1.314.767,1.964.168.432.315.87.5,1.3a.319.319,0,0,1-.11.438l-.025.013a6.2,6.2,0,0,1-3.288,1.121A7.162,7.162,0,0,1,117,115.881a5.979,5.979,0,0,1-2.514-3.735,9.47,9.47,0,0,1-.243-2.079q-.039-11.828-.041-23.657c0-.5,0-.506.483-.506h4.588c.1,0,.2.009.36.016" transform="translate(-70.551 -81.439)" fill="#d10068"/>
        <path id="Path_4" data-name="Path 4" d="M138.62,112.126c.429,1.113.845,2.21,1.274,3.3.084.212-.018.3-.164.412a5.853,5.853,0,0,1-3.023,1.092,7.81,7.81,0,0,1-4.153-.562,6.013,6.013,0,0,1-3.176-3.579,7.578,7.578,0,0,1-.4-2.6q.014-5.676-.009-11.353-.014-6.271-.037-12.543v-.361h5.416v.378c.022,7.7.073,15.409.046,23.113a3.057,3.057,0,0,0,3.114,3l.077,0a3.142,3.142,0,0,0,.534-.1,4.722,4.722,0,0,0,.51-.211" transform="translate(-73.907 -81.446)" fill="#d10068"/>
        <path id="Path_7" data-name="Path 7" d="M61.859,107.166H57.971v-2.251h8.054c0,.717.009,1.427-.012,2.136,0,.1-.145.215-.249.276-1.145.664-2.3,1.319-3.444,1.98-.073.042-.143.1-.3.2H66v2.275h-8.05c0-.731-.01-1.442.012-2.152,0-.1.156-.208.263-.269,1.115-.645,2.238-1.286,3.359-1.924.1-.059.2-.123.307-.185-.009-.028-.02-.056-.031-.086" transform="translate(-57.729 -85.772)" fill="#464749"/>
        <path id="Path_8" data-name="Path 8" d="M61.875,114.418a4.323,4.323,0,1,1-4.208,4.435c0-.036,0-.073,0-.109a4.23,4.23,0,0,1,4.133-4.325h.076m2.128,4.3a2.043,2.043,0,0,0-2.044-2.041c-.05,0-.1,0-.149.005a2.128,2.128,0,0,0-2.164,2.091v.015a2.091,2.091,0,0,0,2.156,2.024l.038,0A2.1,2.1,0,0,0,64,118.774c0-.022,0-.043,0-.065" transform="translate(-57.665 -87.937)" fill="#464749"/>
        <path id="Path_9" data-name="Path 9" d="M57.968,96.659h1.866v3.505h1.238c.007-.11.021-.229.021-.348,0-.85.012-1.7-.007-2.549-.006-.279.092-.349.351-.34.44.018.882.005,1.362.005v3.232h1.314V96.657H66v5.721H57.968Z" transform="translate(-57.734 -83.89)" fill="#464749"/>
      </g>
    </g>
    <g id="Group_31426" data-name="Group 31426" transform="translate(-9500 13049.857)">
      <path id="Path_18687" data-name="Path 18687" d="M-32.463-655.615c.6.19,1.133.314,1.627.527a1.626,1.626,0,0,1,.716,2.749,5.5,5.5,0,0,1-2.828,1.8,12.673,12.673,0,0,1-4.014.614c-3.478.019-6.955.011-10.435.011-.132,0-.263-.023-.468-.041.182-.6.349-1.152.521-1.706.367-1.2.716-2.4,1.112-3.592a6.658,6.658,0,0,1,5.055-4.471,28.133,28.133,0,0,1,7.654-.447,11.344,11.344,0,0,1,2.938.45c1.524.445,1.791,1.83.563,2.853a10.552,10.552,0,0,1-1.876,1.043A4.911,4.911,0,0,1-32.463-655.615Zm-10.41,3.749a.909.909,0,0,0,.206.076c1.893,0,3.79.042,5.68-.037a6.267,6.267,0,0,0,2.064-.566,1.078,1.078,0,0,0,.632-1.242c-.1-.533-.572-.633-.993-.647-2.183-.071-4.365-.108-6.55-.147a.349.349,0,0,0-.266.176C-42.369-653.462-42.618-652.665-42.873-651.865Zm1.4-4.277c1.627,0,3.171.012,4.715-.009a6.625,6.625,0,0,0,1.48-.176,1.979,1.979,0,0,0,.932-.492,1.088,1.088,0,0,0,.273-.863.9.9,0,0,0-.7-.478,36.281,36.281,0,0,0-4.468.037A2.639,2.639,0,0,0-41.472-656.142Z" transform="translate(9928.248 -11739.594)" fill="#fff"/>
      <path id="Path_18688" data-name="Path 18688" d="M-63.7-649.94h-4.4c.325-1.029.632-2.008.944-2.985.711-2.225,1.438-4.445,2.126-6.677a.74.74,0,0,1,.868-.626c1.048.041,2.1.01,3.15.014.182,0,.363.023.6.037l-1.18,3.695c.231.014.4.034.559.034,2.428,0,4.856-.007,7.284.009a.567.567,0,0,0,.655-.478c.286-.972.6-1.936.94-2.89.058-.166.281-.385.431-.388,1.274-.03,2.55-.016,3.824-.012a1.167,1.167,0,0,1,.251.076c-.3.928-.586,1.837-.877,2.745-.75,2.34-1.505,4.678-2.244,7.021-.1.326-.24.475-.609.468-1.286-.021-2.574-.007-3.954-.007l1.419-4.489c-.242-.018-.422-.041-.6-.041-2.41,0-4.82.009-7.231-.011a.6.6,0,0,0-.676.515C-62.834-652.6-63.27-651.279-63.7-649.94Z" transform="translate(9909.268 -11739.597)" fill="#fff"/>
      <path id="Path_18689" data-name="Path 18689" d="M-50.619-660.127c-.441,1.373-.875,2.726-1.313,4.081-.263.817-.538,1.63-.79,2.451-.323,1.053.007,1.713,1.018,1.909a13.665,13.665,0,0,0,5.032-.01,2.8,2.8,0,0,0,2.244-2.107c.633-1.978,1.27-3.958,1.9-5.939a.549.549,0,0,1,.614-.468c1.288.025,2.574.011,3.944.011-.086.316-.145.557-.221.794-.632,1.98-1.242,3.967-1.906,5.938a4.977,4.977,0,0,1-3.829,3.2,25.314,25.314,0,0,1-9.992.364,7.936,7.936,0,0,1-2.068-.591,2.16,2.16,0,0,1-1.244-2.823c.672-2.165,1.376-4.319,2.089-6.472.055-.166.273-.388.42-.392,1.29-.03,2.581-.016,3.873-.012A1.1,1.1,0,0,1-50.619-660.127Z" transform="translate(9918.981 -11739.583)" fill="#fff"/>
    </g>
  </g>
</svg>
