<svg xmlns="http://www.w3.org/2000/svg" width="66.116" height="66.188" viewBox="0 0 66.116 66.188">
  <g id="Group_27207" data-name="Group 27207" transform="translate(14691.771 -9849.814)">
    <path id="Path_15690" data-name="Path 15690" d="M7770.567-4032.667a33.067,33.067,0,0,1,32.974,33.32,33.06,33.06,0,0,1-33.147,32.868,33.038,33.038,0,0,1-32.969-33.319A33.06,33.06,0,0,1,7770.567-4032.667Zm-29.431,32.958a29.394,29.394,0,0,0,29.208,29.525,29.472,29.472,0,0,0,29.514-29.249,29.472,29.472,0,0,0-29.238-29.529A29.4,29.4,0,0,0,7741.137-3999.708Z" transform="translate(-22429.195 13882.48)"/>
    <g id="Ellipse_4634" data-name="Ellipse 4634" transform="translate(-14690.208 9851.72)" fill="#fff" stroke="#707070" stroke-width="1">
      <circle cx="31.289" cy="31.289" r="31.289" stroke="none"/>
      <circle cx="31.289" cy="31.289" r="30.789" fill="none"/>
    </g>
    <path id="Path_15691" data-name="Path 15691" d="M7797.6-3874.639h33.353a6.908,6.908,0,0,1-1.384,4.843c-2.393,3.607-5.961,5.489-10.053,6.366-6.592,1.413-12.8.573-18.177-3.814A9.576,9.576,0,0,1,7797.6-3874.639Z" transform="translate(-22473.012 13766.956)" fill="#e0007a"/>
    <path id="Path_15693" data-name="Path 15693" d="M7800.092-3964.37a9.512,9.512,0,0,1,1.7-5.885c1.456-1.934,3.467-1.955,5-.078,2.4,2.936,2.363,9.215-.065,12.115-1.466,1.751-3.391,1.762-4.834-.03A9.409,9.409,0,0,1,7800.092-3964.37Z" transform="translate(-22474.828 13837.674)"/>
    <path id="Path_15692" data-name="Path 15692" d="M7800.092-3964.37a9.512,9.512,0,0,1,1.7-5.885c1.456-1.934,3.467-1.955,5-.078,2.4,2.936,2.363,9.215-.065,12.115-1.466,1.751-3.391,1.762-4.834-.03A9.409,9.409,0,0,1,7800.092-3964.37Z" transform="translate(-22452.035 13837.674)"/>
  </g>
</svg>
