<svg xmlns="http://www.w3.org/2000/svg" width="11.035" height="11.168" viewBox="0 0 11.035 11.168">
  <g id="Group_28050" data-name="Group 28050" transform="translate(-378.559 -70.528)">
    <g id="_151859" data-name="151859" transform="translate(383.033 70.528)">
      <g id="Group_18219" data-name="Group 18219" transform="translate(0 0)">
        <path id="Path_9872" data-name="Path 9872" d="M103.685,5.586l4.178-4.178a.612.612,0,0,0,0-.864L107.5.178a.612.612,0,0,0-.864,0l-4.974,4.974a.617.617,0,0,0,0,.867l4.97,4.969a.612.612,0,0,0,.864,0l.366-.366a.612.612,0,0,0,0-.864Z" transform="translate(-101.48 0)" fill="#6d6d6d"/>
      </g>
    </g>
    <g id="_151859-2" data-name="151859" transform="translate(385.12 81.696) rotate(180)">
      <g id="Group_18219-2" data-name="Group 18219" transform="translate(0 0)">
        <path id="Path_9872-2" data-name="Path 9872" d="M2.2,5.586,6.382,1.408a.612.612,0,0,0,0-.864L6.016.178a.612.612,0,0,0-.864,0L.178,5.153a.617.617,0,0,0,0,.867l4.97,4.969a.612.612,0,0,0,.864,0l.366-.366a.612.612,0,0,0,0-.864Z" fill="#6d6d6d"/>
      </g>
    </g>
  </g>
</svg>
