<svg id="Group_28052" data-name="Group 28052" xmlns="http://www.w3.org/2000/svg" width="18.046" height="16.12" viewBox="0 0 18.046 16.12">
  <g id="Group_27571" data-name="Group 27571" transform="translate(0 0)">
    <g id="Group_27570" data-name="Group 27570" transform="translate(0 0)">
      <path id="Path_15690" data-name="Path 15690" d="M-2537.67,6591.145a4.5,4.5,0,0,0,.338-6.358,4.5,4.5,0,0,0-5.942-.672,4.505,4.505,0,0,0-6.278,1.084,4.5,4.5,0,0,0,.668,5.946,6.4,6.4,0,0,0-3.416,5.688v1.935a.644.644,0,0,0,.645.644h16.757a.644.644,0,0,0,.645-.644v-1.935A6.4,6.4,0,0,0-2537.67,6591.145Zm-3.029-6.558a3.218,3.218,0,0,1,3.222,3.214,3.219,3.219,0,0,1-1.9,2.938l-.149.064a3.181,3.181,0,0,1-.491.152c-.032.008-.064.012-.1.019a3.163,3.163,0,0,1-.567.057,2.531,2.531,0,0,1-.258-.015.536.536,0,0,1-.1-.006,3.234,3.234,0,0,1-1.054-.311c-.012-.007-.027,0-.039-.011-.064-.031-.129-.058-.187-.092l.014-.021a4.522,4.522,0,0,0,.69-1.257l.02-.055a4.59,4.59,0,0,0,.171-.663c.006-.033.01-.064.015-.1a4.527,4.527,0,0,0,.059-.692,4.63,4.63,0,0,0-.059-.691c-.005-.034-.01-.064-.015-.1a4.57,4.57,0,0,0-.171-.664l-.02-.054a4.513,4.513,0,0,0-.69-1.258c-.005-.006-.008-.013-.014-.02A3.2,3.2,0,0,1-2540.7,6584.587Zm-8.378,3.223a3.214,3.214,0,0,1,3.206-3.223,3.215,3.215,0,0,1,2.233.9c.037.035.074.071.11.108a3.346,3.346,0,0,1,.306.371c.028.04.054.082.08.124a3.2,3.2,0,0,1,.237.435c.016.037.029.074.042.11a3.093,3.093,0,0,1,.16.517c0,.019.006.038.01.059a3.033,3.033,0,0,1,0,1.212c0,.02-.005.04-.01.06a3.139,3.139,0,0,1-.16.516c-.014.036-.027.073-.042.11a3.226,3.226,0,0,1-.237.435c-.026.041-.052.084-.08.123a3.259,3.259,0,0,1-.306.371c-.036.037-.073.073-.11.109a3.2,3.2,0,0,1-.89.6,1.658,1.658,0,0,1-.158.064,3.048,3.048,0,0,1-.479.148c-.041.009-.083.014-.124.021a3.225,3.225,0,0,1-.531.054h-.071a3.225,3.225,0,0,1-.531-.054c-.041-.008-.083-.013-.123-.021a3.051,3.051,0,0,1-.479-.148l-.158-.064A3.221,3.221,0,0,1-2549.077,6587.81Zm8.378,10.312h-10.312v-1.289a5.124,5.124,0,0,1,3.427-4.856,4.494,4.494,0,0,0,3.457,0,5.39,5.39,0,0,1,.628.277c.134.069.258.148.386.228.084.052.169.1.25.16.125.089.242.185.357.283.074.064.147.128.217.193.106.1.206.207.3.315.069.079.136.159.2.241.085.108.165.219.24.333.065.1.122.2.179.3s.124.222.178.337.1.242.148.365c.041.107.084.213.117.322.045.149.077.3.108.458.019.092.044.182.058.274a5.319,5.319,0,0,1,.059.771v1.289Zm5.156,0h-3.867v-1.289c0-.2-.011-.4-.029-.6-.005-.059-.014-.115-.021-.174-.017-.142-.037-.283-.065-.423-.011-.061-.024-.12-.037-.181-.031-.144-.067-.285-.108-.427-.014-.046-.026-.093-.04-.139a6.4,6.4,0,0,0-.776-1.629l-.025-.037q-.166-.246-.355-.477l0-.006a5.71,5.71,0,0,0-.416-.462h.027a4.482,4.482,0,0,0,.549.038h.035a4.906,4.906,0,0,0,.508-.032c.053-.007.1-.017.158-.025.137-.021.272-.048.406-.081.038-.011.076-.019.115-.03a4.542,4.542,0,0,0,.516-.175,5.123,5.123,0,0,1,3.43,4.857v1.289Z" transform="translate(2552.3 -6583.29)" fill="#d4d4d4"/>
    </g>
  </g>
</svg>
