<svg xmlns="http://www.w3.org/2000/svg" width="29.576" height="21.891" viewBox="0 0 29.576 21.891">
  <g id="Group_29709" data-name="Group 29709" transform="translate(6706.903 -1273.649)">
    <path id="Union_20" data-name="Union 20" d="M0,5.92a5.965,5.965,0,0,1,11.93,0A5.965,5.965,0,0,1,0,5.92Zm1.979,0A3.986,3.986,0,1,0,5.965,1.964,3.975,3.975,0,0,0,1.979,5.92Z" transform="translate(-6703.172 1273.649)" fill="#d4d4d4"/>
    <path id="Union_19" data-name="Union 19" d="M0,11.5V5.366l.061-.111C1.895,1.916,4.775,0,7.962,0h3.469c3.188,0,6.068,1.916,7.9,5.255l.061.111V11.5ZM1.979,6.1V9.111H17.415V6.1a7.072,7.072,0,0,0-5.976-3.708H7.954A7.071,7.071,0,0,0,1.979,6.1Z" transform="translate(-6706.903 1284.035)" fill="#d4d4d4"/>
    <path id="add-profile-svgrepo-com" d="M27.353,18.589a1.2,1.2,0,0,1-1.2,1.2H22.561v3.594a1.2,1.2,0,0,1-2.4,0V19.787H16.572a1.2,1.2,0,1,1,0-2.4h3.594V13.8a1.2,1.2,0,0,1,2.4,0v3.594h3.594A1.2,1.2,0,0,1,27.353,18.589Z" transform="translate(-6704.68 1264.814)" fill="#d4d4d4"/>
  </g>
</svg>
