<svg xmlns="http://www.w3.org/2000/svg" width="34" height="34" viewBox="0 0 34 34">
  <g id="Group_29693" data-name="Group 29693" transform="translate(-382 -933)">
    <g id="Rectangle_14120" data-name="Rectangle 14120" transform="translate(382 933)" fill="none" stroke="#707070" stroke-width="1" opacity="0">
      <rect width="34" height="34" stroke="none"/>
      <rect x="0.5" y="0.5" width="33" height="33" fill="none"/>
    </g>
    <g id="Group_29682" data-name="Group 29682" transform="translate(390 941)">
      <path id="Path_16355" data-name="Path 16355" d="M2800.837,6736.74a9.123,9.123,0,1,1-9.125,9.091A9.135,9.135,0,0,1,2800.837,6736.74Zm2.979,10.929v-3.605h-5.956v3.605Zm-5.769-4.865h5.574a9.511,9.511,0,0,0-1.44-3.935c-.866-1.215-1.831-1.215-2.7,0A9.515,9.515,0,0,0,2798.048,6742.8Zm5.575,6.116h-5.575a9.49,9.49,0,0,0,1.435,3.931c.865,1.219,1.83,1.223,2.694.013A9.529,9.529,0,0,0,2803.623,6748.92Zm-7.009-1.232v-3.635h-3.456a7.187,7.187,0,0,0-.044,3.453.3.3,0,0,0,.228.176C2794.427,6747.692,2795.513,6747.688,2796.614,6747.688Zm8.441,0c1.095,0,2.18.007,3.264-.012.09,0,.234-.165.258-.274a7.5,7.5,0,0,0,.012-3.082c-.04-.205-.118-.3-.347-.289-.594.017-1.188.006-1.782.006h-1.4Zm-11.477,1.224c.562,1.816,3.217,4.266,4.718,4.364a11.99,11.99,0,0,1-1.5-4.364Zm11.334,0c-.2.771-.346,1.528-.59,2.254s-.584,1.427-.894,2.166a8.013,8.013,0,0,0,4.7-4.419Zm3.166-6.109a7.517,7.517,0,0,0-4.712-4.371,11.991,11.991,0,0,1,1.505,4.371Zm-9.762-4.391a7.54,7.54,0,0,0-4.714,4.394h3.2A11.92,11.92,0,0,1,2798.317,6738.413Z" transform="translate(-2791.712 -6736.74)" fill="#fff"/>
    </g>
  </g>
</svg>
