<svg xmlns="http://www.w3.org/2000/svg" xmlns:xlink="http://www.w3.org/1999/xlink" width="20.058" height="20.059" viewBox="0 0 20.058 20.059">
  <defs>
    <clipPath id="clip-path">
      <rect id="Rectangle_14551" data-name="Rectangle 14551" width="20.058" height="20.059" transform="translate(0 0)" fill="#fff"/>
    </clipPath>
  </defs>
  <g id="Group_30284" data-name="Group 30284" clip-path="url(#clip-path)">
    <path id="Path_16784" data-name="Path 16784" d="M207.865,26.672v5.85h-9.193V27.507a.836.836,0,0,1,.836-.836ZM209.536,25H199.507A2.507,2.507,0,0,0,197,27.507v6.686h12.536Z" transform="translate(-197 -25)" fill="#fff"/>
    <path id="Path_16785" data-name="Path 16785" d="M221.592,26.672a.836.836,0,0,1,.836.836v5.015h-2.507v-5.85Zm0-1.672H218.25v9.193h5.85V27.507A2.507,2.507,0,0,0,221.592,25Z" transform="translate(-204.042 -25)" fill="#fff"/>
    <path id="Path_16786" data-name="Path 16786" d="M201.179,42.922v5.85h-1.672a.836.836,0,0,1-.836-.836V42.922Zm1.671-1.672H197v6.686a2.507,2.507,0,0,0,2.507,2.507h3.343Z" transform="translate(-197 -30.385)" fill="#fff"/>
    <path id="Path_16787" data-name="Path 16787" d="M219.115,42.922v5.015a.836.836,0,0,1-.836.836h-8.357v-5.85Zm1.672-1.672H208.25v9.193h10.029a2.507,2.507,0,0,0,2.507-2.507Z" transform="translate(-200.728 -30.385)" fill="#fff"/>
  </g>
</svg>
